<?xml version="1.0" standalone="no"?>
<!DOCTYPE svg PUBLIC "-//W3C//DTD SVG 20010904//EN"
 "http://www.w3.org/TR/2001/REC-SVG-20010904/DTD/svg10.dtd">
<svg version="1.0" xmlns="http://www.w3.org/2000/svg"
 width="5248.000000pt" height="5264.000000pt" viewBox="0 0 5248.000000 5264.000000"
 preserveAspectRatio="xMidYMid meet">
<metadata>
Created by potrace 1.16, written by Peter Selinger 2001-2019
</metadata>
<g transform="translate(0.000000,5264.000000) scale(0.100000,-0.100000)"
fill="#000000" stroke="none">
<path d="M18096 43763 c-106 -93 -278 -258 -715 -688 -179 -176 -414 -406
-521 -510 -204 -199 -245 -239 -735 -705 -66 -63 -196 -189 -290 -280 -466
-453 -755 -731 -800 -770 -145 -123 -274 -264 -303 -333 -18 -43 -21 -42 378
-73 330 -25 503 -34 1230 -64 265 -11 620 -13 644 -4 9 3 16 10 16 16 0 9
-119 315 -145 373 -33 74 -108 294 -112 330 -10 78 60 170 337 445 234 233
349 337 464 423 50 37 100 75 111 84 11 10 49 35 85 58 36 22 81 52 100 67 19
14 96 63 170 107 74 45 142 86 150 91 76 49 402 206 495 238 33 11 137 48 232
80 268 94 474 140 788 176 144 17 505 36 659 36 241 0 663 -53 741 -92 63 -32
166 -184 218 -323 8 -22 26 -67 40 -100 14 -33 35 -92 46 -130 11 -39 26 -79
34 -88 12 -17 15 -16 52 15 21 18 92 85 156 148 119 118 328 309 409 375 25
20 83 74 130 119 47 45 153 144 235 221 83 76 173 162 200 190 61 61 234 208
339 289 87 67 149 132 143 149 -5 16 -66 24 -258 31 -90 4 -321 16 -514 26
-192 11 -496 24 -675 30 -179 6 -392 15 -475 20 -82 5 -330 14 -550 19 -374
10 -490 15 -983 41 -106 6 -410 15 -675 21 -265 6 -545 13 -622 15 l-140 5
-89 -78z"/>
<path d="M26140 42780 c-1 -56 -105 -457 -160 -620 -36 -107 -138 -426 -165
-515 -44 -150 -125 -363 -217 -575 -64 -148 -301 -622 -368 -735 -10 -16 -41
-75 -70 -129 -148 -284 -216 -380 -560 -800 -189 -231 -462 -528 -701 -761
-149 -146 -353 -310 -587 -473 -26 -18 -90 -63 -142 -100 -119 -85 -381 -252
-447 -285 -27 -14 -91 -51 -141 -81 -89 -54 -319 -169 -445 -222 -33 -14 -112
-52 -176 -84 -346 -174 -1030 -411 -1605 -556 -144 -36 -322 -83 -396 -104
-74 -21 -234 -61 -355 -89 -121 -29 -247 -58 -280 -66 -85 -20 -242 -52 -365
-75 -207 -37 -267 -49 -390 -79 -155 -37 -619 -129 -975 -192 -142 -25 -286
-48 -570 -90 -345 -51 -377 -56 -705 -109 -350 -57 -407 -66 -730 -110 -267
-36 -485 -64 -710 -90 -173 -20 -338 -40 -530 -66 -143 -19 -390 -49 -625 -74
-99 -10 -193 -21 -210 -25 -16 -3 -102 -12 -190 -20 -88 -8 -270 -25 -405 -39
-220 -23 -331 -33 -715 -66 -225 -19 -778 -60 -1020 -75 -137 -9 -259 -18
-270 -20 -17 -4 -386 -30 -925 -65 -207 -14 -342 -30 -357 -42 -19 -15 -16
-28 19 -98 44 -89 160 -201 358 -348 91 -67 176 -130 190 -141 299 -224 727
-468 1260 -718 41 -20 126 -60 188 -89 63 -30 115 -54 117 -54 2 0 111 -50
242 -110 131 -61 247 -115 258 -120 274 -123 699 -291 1195 -472 342 -125 326
-119 440 -163 140 -55 599 -212 720 -247 93 -27 192 -60 300 -103 19 -8 100
-37 180 -66 376 -134 598 -243 836 -410 150 -106 465 -416 579 -571 42 -57 81
-110 88 -118 76 -95 246 -378 336 -559 136 -272 306 -736 356 -971 8 -36 26
-112 40 -170 76 -306 95 -414 135 -770 12 -102 26 -223 31 -270 24 -207 50
-580 61 -882 12 -334 1 -960 -22 -1308 -26 -385 -31 -455 -45 -590 -7 -80 -19
-208 -25 -285 -11 -143 -26 -275 -60 -540 -11 -82 -26 -204 -34 -270 -20 -170
-44 -366 -56 -460 -33 -257 -44 -326 -75 -480 -19 -93 -41 -210 -49 -260 -14
-82 -39 -221 -80 -445 -21 -113 -93 -470 -111 -545 -7 -33 -25 -114 -40 -180
-14 -66 -37 -165 -50 -220 -13 -55 -36 -154 -50 -220 -47 -210 -75 -328 -90
-385 -7 -30 -26 -107 -40 -170 -15 -63 -33 -142 -41 -175 -9 -33 -24 -100 -34
-150 -11 -49 -29 -124 -41 -165 -39 -141 -110 -415 -128 -490 -10 -41 -25
-100 -34 -130 -17 -57 -89 -307 -113 -395 -7 -27 -31 -111 -54 -185 -22 -74
-56 -193 -76 -265 -20 -71 -45 -157 -55 -190 -30 -92 -68 -219 -101 -335 -16
-58 -51 -175 -78 -260 -26 -85 -50 -164 -53 -175 -22 -84 -75 -260 -108 -357
-66 -197 -90 -289 -87 -337 2 -24 8 -46 15 -48 13 -5 162 147 220 223 76 102
316 365 564 619 311 318 689 728 779 845 38 49 382 451 441 515 21 22 110 128
199 235 89 107 172 206 183 220 32 36 170 204 235 285 31 39 79 97 107 130 58
68 88 107 357 465 105 140 194 257 198 260 10 8 250 331 250 336 0 5 17 28
192 264 63 85 160 220 215 300 55 80 132 190 171 245 73 103 411 606 520 775
34 52 100 154 147 225 46 72 101 159 120 194 20 35 69 114 109 175 40 61 81
125 92 143 10 18 39 65 63 105 24 40 53 89 66 108 49 78 106 172 190 315 49
83 99 168 113 190 33 56 275 484 294 520 30 59 92 171 135 243 24 41 43 77 43
81 0 3 21 42 46 86 52 88 188 344 299 560 63 123 111 214 215 411 15 28 30 60
33 70 4 10 11 26 16 34 11 17 291 586 353 720 58 122 203 422 248 510 21 41
52 109 69 150 17 41 38 89 46 105 24 52 111 255 179 420 37 88 75 180 86 205
10 25 33 79 50 120 17 41 37 89 45 105 28 65 56 134 90 230 38 104 76 199 171
425 108 259 95 226 219 570 13 36 52 148 88 250 36 102 86 244 111 315 97 269
123 345 271 780 20 61 47 144 60 185 13 41 44 140 70 220 26 80 72 224 102
320 29 96 68 220 85 275 48 158 87 294 103 367 8 37 35 143 61 235 25 92 70
260 99 373 29 113 73 275 98 360 24 85 57 209 72 275 15 66 36 154 47 195 33
124 68 271 149 630 11 47 28 119 39 160 10 41 39 183 65 315 25 132 57 299 71
370 14 72 34 168 44 215 11 47 31 150 45 230 14 80 41 233 61 340 79 438 155
940 189 1263 9 81 18 153 20 160 3 6 14 98 25 202 21 208 55 479 70 565 5 30
14 107 20 170 9 102 29 260 60 490 18 130 51 402 60 490 5 47 14 245 21 440 6
195 15 364 19 375 7 20 17 -91 30 -360 11 -229 1 -996 -15 -1160 -37 -362 -73
-2344 -75 -4065 0 -437 -5 -1108 -10 -1490 -5 -382 -15 -1165 -21 -1740 -7
-575 -13 -1063 -14 -1085 -1 -22 -8 -672 -14 -1445 -11 -1393 -22 -2368 -42
-3900 -9 -739 -11 -797 -28 -820 -14 -19 -59 -39 -197 -86 -157 -54 -250 -93
-319 -137 -247 -155 -431 -304 -517 -418 -28 -36 -130 -213 -167 -289 -37 -76
-61 -141 -87 -240 -14 -52 -29 -111 -34 -130 -21 -76 -32 -335 -21 -483 18
-243 70 -395 221 -647 119 -198 188 -282 323 -398 327 -280 674 -412 1078
-412 323 0 637 98 879 274 77 56 287 235 336 287 86 93 194 253 244 366 95
213 137 480 127 813 -4 155 -9 200 -30 275 -49 178 -111 316 -210 465 -125
190 -242 301 -487 465 -182 122 -282 173 -405 210 -213 63 -199 57 -211 95
-10 32 -24 300 -39 745 -3 88 -9 558 -15 1045 -5 487 -12 980 -15 1095 -2 116
-7 527 -10 915 -6 724 -37 2631 -55 3370 -11 441 -23 1015 -40 1840 -6 278
-15 658 -20 845 -14 455 -27 982 -40 1540 -6 253 -15 647 -20 875 -13 537 -13
1080 1 1384 7 160 7 358 1 591 -5 193 -6 382 -3 420 l6 70 17 -75 c35 -151 68
-338 78 -450 6 -63 17 -164 25 -225 8 -60 19 -168 25 -240 13 -165 42 -417 86
-755 50 -380 62 -452 199 -1175 9 -49 23 -127 30 -172 7 -46 18 -97 24 -115 5
-18 13 -55 16 -83 4 -27 20 -117 36 -200 66 -333 121 -615 139 -710 11 -55 37
-172 58 -260 22 -88 50 -205 62 -260 12 -55 49 -208 82 -340 33 -132 66 -265
73 -295 24 -103 47 -195 70 -280 13 -47 27 -101 31 -120 3 -19 10 -41 15 -50
5 -8 25 -80 44 -160 41 -165 146 -555 175 -645 10 -33 51 -159 89 -280 39
-121 77 -247 85 -280 21 -88 34 -132 61 -210 13 -38 53 -164 90 -280 36 -115
72 -226 80 -245 7 -19 30 -89 50 -155 42 -137 162 -500 175 -530 5 -11 24 -65
44 -120 48 -136 121 -336 152 -415 14 -36 50 -126 79 -200 29 -74 78 -201 109
-282 31 -82 63 -163 70 -180 8 -18 26 -67 42 -108 15 -41 35 -93 45 -115 9
-22 42 -105 74 -185 116 -298 221 -551 268 -645 19 -38 49 -104 67 -145 17
-41 42 -97 55 -125 34 -73 78 -172 108 -240 205 -477 435 -955 807 -1680 185
-360 371 -718 380 -730 4 -5 38 -68 75 -140 85 -164 246 -452 319 -570 30 -49
68 -112 84 -140 87 -154 183 -317 213 -363 37 -57 33 -50 214 -342 70 -113
159 -256 199 -318 39 -62 76 -121 81 -131 68 -119 672 -1034 790 -1198 82
-113 122 -170 260 -373 158 -233 457 -642 607 -830 15 -19 93 -118 172 -220
136 -173 181 -231 240 -305 13 -16 95 -120 181 -230 152 -192 363 -455 375
-465 14 -12 185 -208 285 -326 60 -71 126 -147 146 -169 35 -39 195 -221 369
-420 48 -55 111 -129 139 -165 110 -138 472 -529 662 -716 79 -78 196 -192
260 -255 64 -63 151 -154 194 -204 98 -113 259 -278 291 -300 22 -14 25 -14
30 0 15 39 -7 124 -67 251 -10 22 -19 45 -19 51 0 6 -13 51 -29 100 -15 48
-40 129 -55 178 -15 50 -38 119 -51 155 -12 36 -37 115 -55 175 -18 61 -42
142 -55 180 -13 39 -26 86 -30 105 -4 19 -10 40 -14 45 -4 6 -13 28 -19 50
-44 158 -94 325 -145 495 -20 63 -47 158 -61 210 -38 139 -76 269 -92 315 -15
44 -22 70 -94 350 -27 105 -56 213 -63 240 -25 84 -75 282 -112 440 -19 83
-42 175 -50 205 -28 108 -57 226 -76 315 -58 267 -74 337 -128 570 -12 50 -33
144 -47 210 -31 143 -44 201 -79 360 -14 66 -33 154 -41 195 -8 41 -20 95 -25
120 -12 51 -63 349 -84 490 -8 52 -28 183 -45 290 -180 1139 -248 1683 -295
2355 -54 768 -42 1983 25 2502 36 277 99 621 181 983 102 453 130 553 202 740
65 167 183 417 227 480 9 14 36 59 58 101 22 42 53 97 69 122 167 275 212 335
373 497 224 226 477 440 624 528 230 138 396 214 671 309 105 35 300 103 435
149 135 47 324 111 420 144 185 63 259 90 515 190 88 34 248 93 355 130 225
78 427 157 805 317 44 19 120 50 168 69 49 19 96 39 105 44 9 6 73 34 142 64
273 118 630 283 810 375 574 292 930 495 1084 620 38 31 103 83 145 116 42 32
101 82 131 111 30 28 118 108 196 177 156 140 207 197 177 198 -10 0 -33 2
-51 4 -18 1 -115 6 -215 9 -220 9 -533 32 -606 46 -30 5 -69 10 -87 10 -39 0
-45 15 -11 26 31 11 -110 30 -233 33 -216 4 -977 52 -1285 81 -115 11 -286 27
-380 35 -524 49 -599 56 -1035 105 -146 17 -391 44 -545 60 -1015 109 -1215
134 -1990 245 -55 8 -185 26 -290 40 -318 43 -530 75 -750 111 -196 32 -280
47 -610 109 -71 13 -200 36 -285 50 -85 15 -229 42 -320 61 -147 31 -338 70
-615 124 -152 29 -703 150 -825 180 -867 214 -1287 337 -1865 548 -240 87
-701 299 -930 426 -274 151 -366 207 -550 330 -410 275 -559 389 -795 607
-303 280 -555 549 -737 786 -32 41 -80 103 -106 137 -27 33 -59 77 -73 96 -13
19 -34 49 -46 66 -96 132 -267 401 -458 719 -80 134 -249 470 -319 635 -34 80
-66 154 -71 165 -5 11 -20 49 -34 85 -13 36 -36 94 -50 130 -27 71 -61 167
-106 300 -16 47 -52 150 -81 230 -54 153 -79 234 -104 340 -37 153 -45 189
-55 260 -19 130 -32 198 -46 237 -11 32 -13 34 -14 13z"/>
<path d="M32481 42379 c-204 -19 -543 -86 -696 -136 -160 -53 -384 -161 -520
-251 -131 -87 -326 -262 -436 -392 -170 -199 -383 -529 -476 -735 -52 -115
-88 -278 -128 -580 -32 -235 -32 -385 0 -641 30 -244 46 -306 130 -524 20 -52
43 -111 50 -130 13 -33 37 -80 136 -268 98 -184 214 -337 371 -486 195 -186
373 -309 627 -433 260 -127 478 -187 806 -223 409 -45 631 -20 1051 118 218
72 415 169 575 282 20 14 58 40 85 59 236 165 385 315 529 536 222 339 315
536 388 817 65 247 80 619 39 927 -25 183 -45 270 -104 446 -41 124 -200 461
-241 512 -13 15 -45 61 -72 102 -145 215 -439 497 -651 624 -95 57 -347 181
-469 230 -317 128 -661 178 -994 146z"/>
<path d="M20750 40974 c-345 -11 -505 -34 -865 -129 -74 -19 -187 -58 -280
-95 -38 -16 -115 -47 -170 -69 -448 -178 -952 -494 -1376 -864 -64 -56 -223
-208 -351 -337 -264 -264 -285 -294 -274 -387 11 -93 85 -238 249 -483 184
-277 426 -513 710 -693 281 -179 733 -313 1202 -358 460 -44 1153 176 1551
491 192 151 242 196 339 305 116 131 186 235 287 430 124 239 153 302 201 440
92 268 116 472 98 845 -17 371 -65 620 -137 714 -39 52 -119 95 -234 127 -166
46 -587 74 -950 63z"/>
<path d="M39930 15410 c-524 -19 -1175 -64 -1575 -109 -49 -6 -164 -17 -255
-25 -193 -18 -271 -28 -515 -67 -99 -15 -322 -49 -495 -74 -600 -86 -581 -83
-965 -161 -93 -20 -215 -44 -270 -54 -117 -22 -261 -55 -325 -75 -25 -7 -142
-39 -260 -70 -118 -32 -249 -67 -290 -80 -41 -13 -158 -44 -260 -70 -102 -25
-250 -68 -330 -95 -80 -27 -194 -64 -255 -83 -139 -45 -544 -185 -650 -225
-260 -99 -799 -333 -1040 -452 -121 -60 -243 -118 -271 -129 -57 -22 -219
-108 -359 -191 -105 -61 -197 -114 -275 -157 -90 -50 -219 -127 -310 -186 -47
-30 -128 -80 -180 -111 -161 -96 -589 -394 -749 -521 -42 -33 -110 -84 -152
-113 -41 -28 -107 -80 -146 -114 -39 -35 -108 -94 -154 -133 -46 -38 -124
-106 -175 -150 -50 -44 -140 -123 -200 -175 -158 -137 -435 -405 -624 -606
-168 -177 -282 -313 -652 -779 -192 -242 -193 -243 -285 -377 -32 -47 -77
-111 -101 -144 -51 -70 -231 -343 -286 -434 -22 -36 -63 -101 -92 -145 -28
-44 -87 -136 -129 -205 -43 -69 -100 -154 -126 -189 -27 -36 -47 -67 -44 -69
22 -22 138 82 411 369 122 129 517 512 566 550 26 20 93 77 150 126 202 174
483 401 584 473 27 19 96 68 154 109 159 113 752 509 860 574 52 32 142 88
200 124 120 75 298 177 415 237 44 23 91 49 105 57 40 25 169 101 224 133 28
15 139 73 246 128 107 55 200 103 205 108 21 16 162 87 220 110 33 13 69 29
80 36 11 7 83 38 160 69 77 31 186 79 241 106 56 27 104 49 108 49 3 0 25 9
49 19 148 68 200 91 357 156 96 40 231 96 300 125 69 29 150 61 180 70 30 10
120 41 200 70 80 28 179 62 220 75 92 29 350 115 570 191 208 72 226 77 625
179 995 256 1100 281 1270 310 104 18 360 67 505 98 63 13 169 34 235 46 66
12 138 26 160 31 109 25 428 74 640 100 120 14 394 48 530 66 61 7 155 18 210
24 55 5 138 14 185 20 249 28 386 41 585 55 121 8 312 22 425 30 1031 71 2067
73 3065 5 83 -6 256 -17 385 -26 129 -8 289 -19 355 -24 66 -6 176 -14 245
-20 303 -23 542 -47 770 -75 63 -8 171 -21 240 -30 616 -77 965 -126 1370
-195 63 -11 183 -28 265 -39 201 -27 490 -76 655 -110 74 -16 194 -41 265 -56
72 -14 186 -39 255 -55 230 -52 363 -79 625 -126 356 -64 383 -69 520 -99 66
-14 173 -37 237 -51 64 -14 172 -41 240 -60 68 -20 130 -38 138 -40 8 -1 78
-17 155 -34 77 -17 208 -49 290 -72 187 -50 394 -101 505 -123 47 -9 177 -43
290 -75 113 -32 241 -64 285 -71 44 -7 125 -28 180 -46 55 -19 114 -38 130
-43 17 -4 43 -13 58 -19 53 -21 51 -11 -12 53 -35 35 -82 90 -105 123 -23 33
-63 87 -91 120 -52 63 -215 289 -250 347 -11 18 -39 55 -61 82 -23 27 -58 76
-79 109 -21 33 -55 80 -75 105 -20 25 -65 88 -99 140 -35 52 -73 104 -83 116
-42 47 -179 321 -219 438 -23 66 -48 133 -55 147 -22 44 -67 74 -145 98 -41
12 -130 40 -199 61 -133 42 -204 58 -505 115 -180 34 -295 61 -515 121 -89 24
-202 51 -465 110 -167 38 -492 101 -560 109 -33 4 -134 22 -225 41 -272 56
-301 62 -391 79 -47 9 -144 24 -215 35 -71 10 -183 28 -249 39 -357 59 -686
107 -915 131 -256 27 -586 67 -900 109 -278 38 -932 100 -1275 121 -88 6 -218
15 -290 20 -159 12 -642 37 -980 50 -334 14 -1650 20 -1945 10z"/>
<path d="M10265 15395 c-165 -7 -385 -20 -490 -29 -387 -31 -563 -47 -695 -61
-74 -8 -193 -19 -265 -25 -270 -21 -656 -64 -1140 -126 -104 -14 -318 -38
-475 -54 -276 -28 -711 -89 -935 -130 -60 -11 -164 -29 -230 -40 -113 -19
-163 -28 -345 -65 -41 -8 -178 -36 -305 -60 -256 -50 -558 -112 -740 -152 -66
-14 -160 -34 -210 -43 -130 -25 -229 -47 -410 -91 -88 -21 -205 -47 -260 -58
-117 -23 -608 -135 -680 -155 -165 -46 -197 -56 -238 -74 -53 -23 -59 -33 -82
-127 -60 -245 -322 -688 -616 -1040 -36 -44 -101 -125 -144 -180 -42 -55 -125
-152 -184 -215 -59 -63 -123 -133 -142 -155 -19 -22 -40 -44 -48 -49 -20 -12
-111 -101 -111 -108 0 -10 151 22 275 59 66 19 185 52 265 73 80 21 217 57
305 80 88 23 237 59 330 80 94 21 181 43 195 48 43 16 288 79 435 112 77 17
162 38 189 45 118 35 681 163 811 184 160 27 349 63 525 101 80 18 208 45 285
60 77 16 201 42 275 59 74 16 151 33 170 36 19 3 78 15 130 26 86 17 245 43
700 115 138 21 398 67 535 94 28 5 91 14 140 20 50 6 124 18 165 26 79 16 314
54 490 80 127 18 211 28 485 54 116 11 260 25 320 31 61 5 164 14 230 20 66 5
163 13 215 18 187 18 838 72 985 82 946 62 2004 74 2760 29 522 -30 956 -61
1275 -90 58 -5 139 -12 180 -15 142 -11 353 -36 675 -81 99 -13 214 -29 255
-35 83 -11 387 -63 465 -79 64 -13 327 -63 470 -90 61 -11 171 -29 245 -40
221 -34 451 -78 670 -130 47 -11 134 -31 193 -45 60 -13 146 -35 190 -49 195
-58 237 -69 447 -118 25 -5 108 -28 185 -50 245 -71 268 -77 365 -103 179 -48
571 -176 810 -265 47 -17 139 -51 205 -75 272 -97 527 -197 619 -242 38 -19
99 -44 135 -57 36 -13 95 -37 131 -54 87 -39 179 -78 210 -87 14 -4 59 -23
100 -42 41 -20 152 -70 245 -113 94 -43 222 -102 285 -132 63 -31 126 -59 140
-63 14 -4 63 -29 110 -55 47 -26 135 -72 195 -102 61 -31 148 -78 195 -107 47
-28 88 -51 92 -51 4 0 60 -32 125 -71 65 -39 143 -85 173 -101 30 -17 66 -38
80 -48 14 -10 70 -41 125 -69 55 -29 142 -79 194 -112 51 -32 95 -59 97 -59 9
0 302 -185 394 -248 186 -129 1022 -752 1220 -911 99 -78 381 -345 630 -596
288 -291 475 -471 500 -485 17 -9 17 -7 7 26 -6 19 -20 45 -32 57 -12 12 -25
30 -28 40 -4 10 -46 77 -93 150 -82 123 -126 192 -179 277 -79 127 -295 445
-353 521 -19 24 -75 103 -127 176 -178 253 -273 374 -509 652 -54 64 -119 143
-144 176 -125 163 -528 595 -703 753 -53 48 -163 149 -245 224 -82 75 -186
165 -231 200 -44 35 -128 104 -186 153 -194 167 -429 344 -592 448 -66 41
-159 106 -207 144 -48 37 -147 104 -220 147 -73 44 -171 105 -218 137 -115 76
-211 132 -410 236 -41 22 -97 52 -125 68 -27 15 -111 62 -185 104 -74 42 -169
92 -210 110 -41 19 -147 69 -235 111 -358 173 -402 193 -512 236 -63 24 -129
50 -146 58 -166 76 -224 101 -422 183 -204 85 -585 219 -735 259 -52 14 -140
41 -195 59 -55 18 -154 47 -220 64 -66 18 -147 41 -180 51 -33 11 -109 33
-170 50 -60 17 -139 39 -175 49 -36 11 -81 23 -100 26 -19 4 -170 40 -335 80
-165 39 -334 79 -375 87 -41 8 -120 27 -175 41 -55 15 -158 38 -230 52 -71 14
-155 32 -185 39 -30 8 -107 19 -170 25 -63 6 -185 20 -270 31 -85 10 -252 31
-370 46 -242 29 -517 70 -570 84 -19 5 -96 14 -170 20 -74 6 -223 20 -330 31
-517 52 -862 78 -1190 89 -472 17 -2300 21 -2645 5z"/>
</g>
</svg>
